<svg width="2950" height="903" viewBox="0 0 2950 903" fill="none" xmlns="http://www.w3.org/2000/svg">
<style>.fil0{fill:white}</style>
<path class="fil0" d="M696.439 284.277H814.769L939.746 589.186H945.064L1070.04 284.277H1188.37V738.095H1095.3V442.714H1091.54L974.093 735.879H910.718L793.275 441.606H789.507V738.095H696.439V284.277ZM1363.37 284.277V738.095H1267.42V284.277H1363.37ZM1743.23 430.97C1740.13 420.186 1735.77 410.658 1730.16 402.385C1724.55 393.964 1717.68 386.874 1709.55 381.112C1701.58 375.203 1692.42 370.697 1682.08 367.595C1671.88 364.493 1660.58 362.942 1648.17 362.942C1624.98 362.942 1604.59 368.703 1587.01 380.226C1569.58 391.748 1555.99 408.516 1546.24 430.527C1536.49 452.391 1531.62 479.129 1531.62 510.743C1531.62 542.356 1536.42 569.243 1546.02 591.402C1555.62 613.561 1569.21 630.476 1586.79 642.146C1604.37 653.669 1625.13 659.43 1649.06 659.43C1670.77 659.43 1689.31 655.589 1704.68 647.908C1720.19 640.078 1732.01 629.072 1740.13 614.891C1748.41 600.709 1752.54 583.942 1752.54 564.589L1772.04 567.47H1655.04V495.231H1844.94V552.402C1844.94 592.288 1836.52 626.561 1819.68 655.22C1802.84 683.731 1779.65 705.743 1750.1 721.254C1720.56 736.618 1686.73 744.3 1648.62 744.3C1606.07 744.3 1568.69 734.919 1536.49 716.158C1504.29 697.249 1479.17 670.436 1461.15 635.72C1443.27 600.856 1434.34 559.493 1434.34 511.629C1434.34 474.845 1439.66 442.05 1450.29 413.243C1461.08 384.288 1476.14 359.766 1495.5 339.675C1514.85 319.584 1537.38 304.294 1563.08 293.805C1588.79 283.317 1616.63 278.072 1646.62 278.072C1672.33 278.072 1696.26 281.839 1718.42 289.373C1740.58 296.76 1760.22 307.248 1777.36 320.839C1794.64 334.43 1808.75 350.606 1819.68 369.368C1830.62 387.981 1837.63 408.516 1840.73 430.97H1743.23ZM2012.97 284.277V738.095H1917.02V284.277H2012.97ZM2508.94 511.186C2508.94 560.675 2499.56 602.777 2480.8 637.493C2462.19 672.209 2436.78 698.726 2404.57 717.044C2372.52 735.214 2336.47 744.3 2296.44 744.3C2256.11 744.3 2219.91 735.141 2187.86 716.822C2155.8 698.504 2130.46 671.987 2111.85 637.271C2093.24 602.555 2083.93 560.527 2083.93 511.186C2083.93 461.697 2093.24 419.595 2111.85 384.879C2130.46 350.163 2155.8 323.72 2187.86 305.55C2219.91 287.231 2256.11 278.072 2296.44 278.072C2336.47 278.072 2372.52 287.231 2404.57 305.55C2436.78 323.72 2462.19 350.163 2480.8 384.879C2499.56 419.595 2508.94 461.697 2508.94 511.186ZM2411.66 511.186C2411.66 479.129 2406.86 452.095 2397.26 430.084C2387.81 408.072 2374.44 391.379 2357.15 380.004C2339.87 368.629 2319.63 362.942 2296.44 362.942C2273.24 362.942 2253 368.629 2235.72 380.004C2218.44 391.379 2204.99 408.072 2195.39 430.084C2185.94 452.095 2181.21 479.129 2181.21 511.186C2181.21 543.243 2185.94 570.277 2195.39 592.288C2204.99 614.3 2218.44 630.993 2235.72 642.368C2253 653.743 2273.24 659.43 2296.44 659.43C2319.63 659.43 2339.87 653.743 2357.15 642.368C2374.44 630.993 2387.81 614.3 2397.26 592.288C2406.86 570.277 2411.66 543.243 2411.66 511.186ZM2826.2 414.794C2824.43 396.919 2816.82 383.033 2803.38 373.135C2789.94 363.237 2771.69 358.288 2748.65 358.288C2732.99 358.288 2719.77 360.504 2708.98 364.936C2698.2 369.22 2689.93 375.203 2684.17 382.885C2678.55 390.567 2675.74 399.283 2675.74 409.033C2675.45 417.158 2677.15 424.249 2680.84 430.305C2684.68 436.362 2689.93 441.606 2696.57 446.038C2703.22 450.322 2710.9 454.089 2719.62 457.339C2728.34 460.442 2737.64 463.101 2747.54 465.317L2788.31 475.067C2808.11 479.498 2826.28 485.408 2842.82 492.794C2859.37 500.18 2873.7 509.266 2885.81 520.05C2897.93 530.834 2907.31 543.538 2913.95 558.163C2920.75 572.788 2924.22 589.555 2924.37 608.464C2924.22 636.237 2917.13 660.317 2903.1 680.703C2889.21 700.942 2869.12 716.675 2842.82 727.902C2816.68 738.981 2785.14 744.521 2748.2 744.521C2711.57 744.521 2679.66 738.908 2652.48 727.68C2625.44 716.453 2604.32 699.834 2589.1 677.822C2574.03 655.663 2566.13 628.26 2565.39 595.612H2658.24C2659.27 610.828 2663.63 623.533 2671.31 633.726C2679.14 643.771 2689.56 651.379 2702.56 656.55C2715.7 661.572 2730.55 664.084 2747.1 664.084C2763.35 664.084 2777.45 661.72 2789.42 656.993C2801.53 652.266 2810.92 645.692 2817.56 637.271C2824.21 628.851 2827.53 619.175 2827.53 608.243C2827.53 598.05 2824.51 589.481 2818.45 582.538C2812.54 575.595 2803.82 569.686 2792.3 564.811C2780.93 559.936 2766.97 555.504 2750.42 551.516L2701.01 539.106C2662.74 529.8 2632.53 515.248 2610.38 495.453C2588.22 475.658 2577.21 448.993 2577.36 415.459C2577.21 387.981 2584.52 363.976 2599.3 343.442C2614.22 322.908 2634.68 306.879 2660.68 295.356C2686.68 283.834 2716.22 278.072 2749.31 278.072C2782.99 278.072 2812.39 283.834 2837.51 295.356C2862.77 306.879 2882.42 322.908 2896.45 343.442C2910.48 363.976 2917.72 387.76 2918.17 414.794H2826.2Z"/>
<path class="fil0" fill-rule="evenodd" clip-rule="evenodd" d="M448.737 147.269H177.034C177.189 126.922 208.757 95.8077 224.662 83.7461C274.824 45.704 346.575 46.8692 399.023 82.3034C414.768 92.9413 448.358 127.744 448.737 147.269ZM297.007 0.832311C142.502 14.394 118.77 139.273 72.5996 259.845C20.811 395.087 -37.8567 496.082 32.1179 641.519C108.494 800.261 207.149 762.544 224.9 697.63C235.141 660.181 217.681 639.182 194.63 613.092C97.6375 503.311 184.583 330.478 329.338 345.803C432.687 356.744 495.617 460.898 463.786 557.57C451.339 595.371 437.563 602.092 415.695 631.084C369.228 692.687 426.569 770.961 494.737 751.045C541.418 737.406 587.586 660.041 604.395 616.974C659.614 475.502 594.786 369.861 543.855 235.64C525.778 188.001 499.788 107.241 467.493 70.2921C423.612 20.0871 363.561 -5.00971 297.007 0.832311Z"/>
<path class="fil0" fill-rule="evenodd" clip-rule="evenodd" d="M284.184 438.625H343.181C352.645 438.625 360.388 446.368 360.388 455.833C360.388 465.297 352.645 473.04 343.181 473.04H284.184C274.72 473.04 266.977 465.297 266.977 455.833C266.977 446.368 274.72 438.625 284.184 438.625Z"/>
<path class="fil0" fill-rule="evenodd" clip-rule="evenodd" d="M256.204 472.52H370.522C379.986 472.52 387.73 480.263 387.73 489.727C387.73 499.192 379.986 506.935 370.522 506.935H256.204C246.739 506.935 238.996 499.192 238.996 489.727C238.996 480.263 246.739 472.52 256.204 472.52Z"/>
<path class="fil0" fill-rule="evenodd" clip-rule="evenodd" d="M228.224 506.415H397.864C407.329 506.415 415.072 514.158 415.072 523.623C415.072 533.087 407.329 540.83 397.864 540.83H228.224C218.759 540.83 211.017 533.087 211.017 523.623C211.017 514.158 218.759 506.415 228.224 506.415Z"/>
<path class="fil0" fill-rule="evenodd" clip-rule="evenodd" d="M397.917 833.974H228.276C218.812 833.974 211.069 826.23 211.069 816.766C211.069 807.301 218.812 799.558 228.276 799.558H397.917C407.382 799.558 415.124 807.301 415.124 816.766C415.124 826.23 407.382 833.974 397.917 833.974Z"/>
<path class="fil0" fill-rule="evenodd" clip-rule="evenodd" d="M369.936 867.868H255.618C246.154 867.868 238.41 860.125 238.41 850.661C238.41 841.196 246.154 833.453 255.618 833.453H369.936C379.402 833.453 387.144 841.196 387.144 850.661C387.144 860.125 379.402 867.868 369.936 867.868Z"/>
<path class="fil0" fill-rule="evenodd" clip-rule="evenodd" d="M341.957 902.141H282.96C273.495 902.141 265.752 894.398 265.752 884.934C265.752 875.469 273.495 867.726 282.96 867.726H341.957C351.421 867.726 359.164 875.469 359.164 884.934C359.164 894.398 351.421 902.141 341.957 902.141Z"/>
<path class="fil0" fill-rule="evenodd" clip-rule="evenodd" d="M285.258 531.198H340.726V805.975H285.258V531.198Z"/>
<path class="fil0" d="M692.642 194V48.5455H750.028C761.061 48.5455 770.459 50.6525 778.224 54.8665C785.99 59.0331 791.908 64.8333 795.98 72.267C800.099 79.6534 802.159 88.1761 802.159 97.8352C802.159 107.494 800.076 116.017 795.909 123.403C791.742 130.79 785.705 136.543 777.798 140.662C769.938 144.781 760.421 146.841 749.247 146.841H712.67V122.196H744.276C750.194 122.196 755.071 121.178 758.906 119.142C762.789 117.059 765.677 114.194 767.571 110.548C769.512 106.855 770.483 102.617 770.483 97.8352C770.483 93.0057 769.512 88.7917 767.571 85.1932C765.677 81.5473 762.789 78.7301 758.906 76.7415C755.024 74.7055 750.099 73.6875 744.134 73.6875H723.395V194H692.642ZM869.098 196.131C858.066 196.131 848.525 193.787 840.476 189.099C832.474 184.365 826.295 177.783 821.939 169.355C817.583 160.88 815.405 151.055 815.405 139.881C815.405 128.612 817.583 118.763 821.939 110.335C826.295 101.86 832.474 95.2784 840.476 90.5909C848.525 85.8561 858.066 83.4886 869.098 83.4886C880.13 83.4886 889.647 85.8561 897.649 90.5909C905.698 95.2784 911.901 101.86 916.257 110.335C920.613 118.763 922.791 128.612 922.791 139.881C922.791 151.055 920.613 160.88 916.257 169.355C911.901 177.783 905.698 184.365 897.649 189.099C889.647 193.787 880.13 196.131 869.098 196.131ZM869.24 172.693C874.259 172.693 878.449 171.273 881.811 168.432C885.173 165.544 887.706 161.614 889.411 156.642C891.162 151.67 892.038 146.012 892.038 139.668C892.038 133.323 891.162 127.665 889.411 122.693C887.706 117.722 885.173 113.792 881.811 110.903C878.449 108.015 874.259 106.571 869.24 106.571C864.174 106.571 859.912 108.015 856.456 110.903C853.047 113.792 850.466 117.722 848.714 122.693C847.01 127.665 846.158 133.323 846.158 139.668C846.158 146.012 847.01 151.67 848.714 156.642C850.466 161.614 853.047 165.544 856.456 168.432C859.912 171.273 864.174 172.693 869.24 172.693ZM961.25 194L931.562 84.9091H962.173L979.077 158.205H980.071L997.685 84.9091H1027.73L1045.62 157.778H1046.55L1063.17 84.9091H1093.71L1064.09 194H1032.06L1013.31 125.392H1011.96L993.21 194H961.25ZM1156.83 196.131C1145.61 196.131 1135.95 193.858 1127.85 189.312C1119.8 184.72 1113.6 178.233 1109.24 169.852C1104.89 161.424 1102.71 151.457 1102.71 139.952C1102.71 128.73 1104.89 118.882 1109.24 110.406C1113.6 101.931 1119.73 95.3258 1127.64 90.5909C1135.59 85.8561 1144.92 83.4886 1155.62 83.4886C1162.82 83.4886 1169.52 84.6487 1175.72 86.9688C1181.97 89.2415 1187.42 92.6742 1192.06 97.267C1196.74 101.86 1200.39 107.636 1202.99 114.597C1205.6 121.509 1206.9 129.606 1206.9 138.886V147.196H1114.78V128.446H1178.42C1178.42 124.09 1177.47 120.231 1175.58 116.869C1173.68 113.508 1171.06 110.88 1167.7 108.986C1164.38 107.045 1160.52 106.074 1156.12 106.074C1151.53 106.074 1147.45 107.139 1143.9 109.27C1140.4 111.353 1137.65 114.17 1135.66 117.722C1133.68 121.225 1132.66 125.132 1132.61 129.44V147.267C1132.61 152.665 1133.6 157.329 1135.59 161.259C1137.63 165.188 1140.49 168.219 1144.19 170.349C1147.88 172.48 1152.26 173.545 1157.33 173.545C1160.69 173.545 1163.77 173.072 1166.56 172.125C1169.35 171.178 1171.74 169.758 1173.73 167.864C1175.72 165.97 1177.24 163.65 1178.28 160.903L1206.26 162.75C1204.84 169.473 1201.93 175.345 1197.52 180.364C1193.17 185.335 1187.53 189.218 1180.62 192.011C1173.76 194.758 1165.83 196.131 1156.83 196.131ZM1226.64 194V84.9091H1255.98V103.943H1257.11C1259.1 97.1723 1262.44 92.0587 1267.13 88.6023C1271.81 85.0985 1277.21 83.3466 1283.32 83.3466C1284.84 83.3466 1286.47 83.4413 1288.22 83.6307C1289.97 83.8201 1291.51 84.0805 1292.84 84.4119V111.259C1291.42 110.832 1289.45 110.454 1286.94 110.122C1284.43 109.791 1282.14 109.625 1280.05 109.625C1275.6 109.625 1271.63 110.596 1268.12 112.537C1264.67 114.431 1261.92 117.082 1259.88 120.491C1257.89 123.901 1256.9 127.83 1256.9 132.281V194H1226.64ZM1353.12 196.131C1341.9 196.131 1332.24 193.858 1324.14 189.312C1316.09 184.72 1309.89 178.233 1305.53 169.852C1301.18 161.424 1299 151.457 1299 139.952C1299 128.73 1301.18 118.882 1305.53 110.406C1309.89 101.931 1316.02 95.3258 1323.93 90.5909C1331.88 85.8561 1341.21 83.4886 1351.91 83.4886C1359.11 83.4886 1365.81 84.6487 1372.01 86.9688C1378.26 89.2415 1383.71 92.6742 1388.35 97.267C1393.03 101.86 1396.68 107.636 1399.28 114.597C1401.89 121.509 1403.19 129.606 1403.19 138.886V147.196H1311.07V128.446H1374.71C1374.71 124.09 1373.76 120.231 1371.87 116.869C1369.97 113.508 1367.35 110.88 1363.98 108.986C1360.67 107.045 1356.81 106.074 1352.41 106.074C1347.81 106.074 1343.74 107.139 1340.19 109.27C1336.69 111.353 1333.94 114.17 1331.95 117.722C1329.96 121.225 1328.95 125.132 1328.9 129.44V147.267C1328.9 152.665 1329.89 157.329 1331.88 161.259C1333.92 165.188 1336.78 168.219 1340.48 170.349C1344.17 172.48 1348.55 173.545 1353.62 173.545C1356.98 173.545 1360.05 173.072 1362.85 172.125C1365.64 171.178 1368.03 169.758 1370.02 167.864C1372.01 165.97 1373.53 163.65 1374.57 160.903L1402.55 162.75C1401.13 169.473 1398.22 175.345 1393.81 180.364C1389.46 185.335 1383.82 189.218 1376.91 192.011C1370.04 194.758 1362.11 196.131 1353.12 196.131ZM1463.13 195.776C1454.85 195.776 1447.34 193.645 1440.62 189.384C1433.94 185.075 1428.64 178.754 1424.71 170.42C1420.83 162.04 1418.88 151.765 1418.88 139.597C1418.88 127.097 1420.9 116.704 1424.92 108.418C1428.95 100.084 1434.3 93.858 1440.97 89.7386C1447.7 85.572 1455.06 83.4886 1463.06 83.4886C1469.17 83.4886 1474.26 84.5303 1478.33 86.6136C1482.45 88.6496 1485.76 91.2064 1488.27 94.2841C1490.83 97.3144 1492.77 100.297 1494.1 103.233H1495.02V48.5455H1525.21V194H1495.38V176.528H1494.1C1492.68 179.559 1490.67 182.565 1488.06 185.548C1485.5 188.484 1482.17 190.922 1478.05 192.864C1473.97 194.805 1469 195.776 1463.13 195.776ZM1472.72 171.699C1477.6 171.699 1481.72 170.373 1485.08 167.722C1488.49 165.023 1491.09 161.259 1492.89 156.429C1494.74 151.599 1495.66 145.941 1495.66 139.455C1495.66 132.968 1494.76 127.333 1492.96 122.551C1491.16 117.769 1488.56 114.076 1485.15 111.472C1481.74 108.867 1477.6 107.565 1472.72 107.565C1467.75 107.565 1463.56 108.915 1460.15 111.614C1456.74 114.312 1454.16 118.053 1452.41 122.835C1450.66 127.617 1449.78 133.157 1449.78 139.455C1449.78 145.799 1450.66 151.41 1452.41 156.287C1454.21 161.116 1456.79 164.904 1460.15 167.651C1463.56 170.349 1467.75 171.699 1472.72 171.699ZM1596.94 194V48.5455H1655.18C1665.88 48.5455 1674.8 50.1316 1681.95 53.304C1689.1 56.4763 1694.48 60.8797 1698.08 66.5142C1701.67 72.1013 1703.47 78.5407 1703.47 85.8324C1703.47 91.5142 1702.34 96.5095 1700.06 100.818C1697.79 105.08 1694.67 108.583 1690.69 111.33C1686.76 114.028 1682.26 115.946 1677.19 117.082V118.503C1682.73 118.74 1687.92 120.302 1692.75 123.19C1697.63 126.079 1701.58 130.127 1704.61 135.335C1707.64 140.496 1709.15 146.652 1709.15 153.801C1709.15 161.519 1707.24 168.408 1703.4 174.469C1699.61 180.482 1694 185.241 1686.57 188.744C1679.14 192.248 1669.97 194 1659.08 194H1596.94ZM1627.69 168.858H1652.76C1661.33 168.858 1667.58 167.224 1671.51 163.957C1675.44 160.643 1677.41 156.24 1677.41 150.747C1677.41 146.723 1676.44 143.171 1674.5 140.094C1672.55 137.016 1669.78 134.601 1666.19 132.849C1662.63 131.098 1658.4 130.222 1653.47 130.222H1627.69V168.858ZM1627.69 109.412H1650.49C1654.7 109.412 1658.44 108.678 1661.71 107.21C1665.03 105.695 1667.63 103.564 1669.52 100.818C1671.47 98.072 1672.44 94.7812 1672.44 90.946C1672.44 85.6903 1670.57 81.4527 1666.83 78.233C1663.13 75.0133 1657.88 73.4034 1651.06 73.4034H1627.69V109.412ZM1747.28 234.909C1743.44 234.909 1739.84 234.601 1736.48 233.986C1733.17 233.418 1730.42 232.684 1728.24 231.784L1735.06 209.199C1738.61 210.288 1741.81 210.88 1744.65 210.974C1747.54 211.069 1750.02 210.406 1752.11 208.986C1754.24 207.565 1755.96 205.151 1757.29 201.741L1759.07 197.125L1719.93 84.9091H1751.75L1774.34 165.023H1775.47L1798.27 84.9091H1830.3L1787.9 205.79C1785.87 211.661 1783.1 216.775 1779.59 221.131C1776.14 225.534 1771.76 228.92 1766.45 231.287C1761.15 233.702 1754.76 234.909 1747.28 234.909Z" fill-opacity="0.55"/>
</svg>
