<svg width="3360" height="1056" viewBox="0 0 3360 1056" fill="none" xmlns="http://www.w3.org/2000/svg">
<style>.fil0{fill:black}</style>
<path class="fil0" d="M1399.07 276.919V766H1279.93V472.691L1170.55 766H1074.41L964.33 471.994V766H845.195V276.919H985.928L1123.18 615.513L1259.03 276.919H1399.07ZM1603.88 276.919V766H1484.74V276.919H1603.88ZM2014.87 431.585C2006.05 415.329 1993.28 403.021 1976.55 394.661C1960.3 385.836 1941.02 381.423 1918.73 381.423C1880.18 381.423 1849.29 394.196 1826.07 419.742C1802.84 444.823 1791.23 478.496 1791.23 520.763C1791.23 565.816 1803.31 601.115 1827.46 626.661C1852.08 651.742 1885.75 664.282 1928.48 664.282C1957.74 664.282 1982.36 656.851 2002.33 641.988C2022.77 627.125 2037.63 605.76 2046.92 577.892H1895.74V490.108H2154.91V600.883C2146.08 630.609 2130.99 658.244 2109.62 683.79C2088.72 709.335 2062.02 730.004 2029.5 745.796C1996.99 761.588 1960.3 769.483 1919.43 769.483C1871.12 769.483 1827.93 759.033 1789.84 738.132C1752.22 716.767 1722.72 687.273 1701.36 649.652C1680.46 612.03 1670.01 569.067 1670.01 520.763C1670.01 472.458 1680.46 429.495 1701.36 391.874C1722.72 353.788 1752.22 324.294 1789.84 303.393C1827.46 282.028 1870.42 271.345 1918.73 271.345C1977.25 271.345 2026.48 285.511 2066.43 313.844C2106.84 342.176 2133.54 381.423 2146.55 431.585H2014.87ZM2340.03 276.919V766H2220.9V276.919H2340.03ZM2657.67 770.877C2611.69 770.877 2569.43 760.194 2530.88 738.829C2492.79 717.463 2462.37 687.738 2439.61 649.652C2417.31 611.101 2406.17 567.906 2406.17 520.066C2406.17 472.226 2417.31 429.263 2439.61 391.177C2462.37 353.091 2492.79 323.365 2530.88 302C2569.43 280.634 2611.69 269.952 2657.67 269.952C2703.66 269.952 2745.69 280.634 2783.78 302C2822.33 323.365 2852.52 353.091 2874.35 391.177C2896.64 429.263 2907.79 472.226 2907.79 520.066C2907.79 567.906 2896.64 611.101 2874.35 649.652C2852.05 687.738 2821.86 717.463 2783.78 738.829C2745.69 760.194 2703.66 770.877 2657.67 770.877ZM2657.67 662.192C2696.69 662.192 2727.81 649.187 2751.03 623.177C2774.72 597.167 2786.56 562.797 2786.56 520.066C2786.56 476.871 2774.72 442.5 2751.03 416.955C2727.81 390.945 2696.69 377.94 2657.67 377.94C2618.19 377.94 2586.61 390.713 2562.92 416.258C2539.7 441.804 2528.09 476.406 2528.09 520.066C2528.09 563.261 2539.7 597.864 2562.92 623.874C2586.61 649.419 2618.19 662.192 2657.67 662.192ZM3151.03 770.877C3115.26 770.877 3083.22 765.071 3054.88 753.459C3026.55 741.848 3003.79 724.663 2986.61 701.904C2969.89 679.145 2961.06 651.742 2960.13 619.694H3086.93C3088.79 637.808 3095.06 651.742 3105.74 661.495C3116.43 670.785 3130.36 675.429 3147.54 675.429C3165.19 675.429 3179.13 671.481 3189.35 663.586C3199.56 655.225 3204.67 643.846 3204.67 629.447C3204.67 617.371 3200.49 607.385 3192.13 599.489C3184.24 591.594 3174.25 585.091 3162.17 579.982C3150.56 574.873 3133.84 569.067 3112.01 562.564C3080.43 552.811 3054.65 543.057 3034.68 533.303C3014.71 523.549 2997.52 509.151 2983.12 490.108C2968.73 471.065 2961.53 446.216 2961.53 415.561C2961.53 370.044 2978.01 334.512 3010.99 308.967C3043.97 282.957 3086.93 269.952 3139.88 269.952C3193.76 269.952 3237.19 282.957 3270.16 308.967C3303.14 334.512 3320.79 370.276 3323.11 416.258H3194.22C3193.29 400.466 3187.49 388.158 3176.81 379.333C3166.12 370.044 3152.42 365.399 3135.7 365.399C3121.3 365.399 3109.69 369.347 3100.87 377.243C3092.04 384.675 3087.63 395.589 3087.63 409.988C3087.63 425.78 3095.06 438.088 3109.92 446.913C3124.79 455.738 3148.01 465.259 3179.59 475.477C3211.18 486.16 3236.72 496.378 3256.23 506.132C3276.2 515.886 3293.39 530.052 3307.78 548.631C3322.18 567.209 3329.38 591.129 3329.38 620.39C3329.38 648.258 3322.18 673.572 3307.78 696.33C3293.85 719.089 3273.41 737.203 3246.48 750.673C3219.54 764.142 3187.72 770.877 3151.03 770.877Z"/>
<path class="fil0" fill-rule="evenodd" clip-rule="evenodd" d="M539.741 228.174H268.038C268.193 207.826 299.761 176.713 315.666 164.651C365.828 126.609 437.578 127.774 490.027 163.208C505.772 173.846 539.362 208.649 539.741 228.174ZM388.011 81.7372C233.506 95.2989 209.773 220.178 163.604 340.75C111.815 475.992 53.1472 576.987 123.122 722.424C199.498 881.166 298.152 843.449 315.904 778.535C326.145 741.086 308.684 720.087 285.634 693.997C188.641 584.216 275.587 411.383 420.342 426.708C523.691 437.649 586.621 541.802 554.79 638.475C542.343 676.276 528.567 682.997 506.698 711.989C460.231 773.592 517.573 851.866 585.741 831.95C632.422 818.311 678.59 740.945 695.399 697.879C750.618 556.407 685.79 450.766 634.859 316.545C616.782 268.905 590.791 188.146 558.497 151.197C514.616 100.992 454.564 75.8952 388.011 81.7372Z"/>
<path class="fil0" fill-rule="evenodd" clip-rule="evenodd" d="M375.188 519.53H434.185C443.649 519.53 451.392 527.273 451.392 536.738C451.392 546.202 443.649 553.945 434.185 553.945H375.188C365.724 553.945 357.98 546.202 357.98 536.738C357.98 527.273 365.724 519.53 375.188 519.53Z"/>
<path class="fil0" fill-rule="evenodd" clip-rule="evenodd" d="M347.208 553.425H461.526C470.99 553.425 478.734 561.168 478.734 570.632C478.734 580.097 470.99 587.84 461.526 587.84H347.208C337.743 587.84 330 580.097 330 570.632C330 561.168 337.743 553.425 347.208 553.425Z"/>
<path class="fil0" fill-rule="evenodd" clip-rule="evenodd" d="M319.228 587.32H488.868C498.333 587.32 506.076 595.063 506.076 604.528C506.076 613.992 498.333 621.735 488.868 621.735H319.228C309.763 621.735 302.021 613.992 302.021 604.528C302.021 595.063 309.763 587.32 319.228 587.32Z"/>
<path class="fil0" fill-rule="evenodd" clip-rule="evenodd" d="M488.92 914.879H319.28C309.816 914.879 302.073 907.135 302.073 897.671C302.073 888.206 309.816 880.463 319.28 880.463H488.92C498.386 880.463 506.128 888.206 506.128 897.671C506.128 907.135 498.386 914.879 488.92 914.879Z"/>
<path class="fil0" fill-rule="evenodd" clip-rule="evenodd" d="M460.94 948.773H346.622C337.158 948.773 329.414 941.03 329.414 931.566C329.414 922.101 337.158 914.358 346.622 914.358H460.94C470.405 914.358 478.148 922.101 478.148 931.566C478.148 941.03 470.405 948.773 460.94 948.773Z"/>
<path class="fil0" fill-rule="evenodd" clip-rule="evenodd" d="M432.96 983.046H373.964C364.499 983.046 356.756 975.303 356.756 965.839C356.756 956.374 364.499 948.631 373.964 948.631H432.96C442.425 948.631 450.168 956.374 450.168 965.839C450.168 975.303 442.425 983.046 432.96 983.046Z"/>
<path class="fil0" fill-rule="evenodd" clip-rule="evenodd" d="M376.262 612.103H431.73V886.88H376.262V612.103Z"/>
</svg>
