<svg xmlns="http://www.w3.org/2000/svg" width="215.9mm" height="279.4mm" viewBox="0 0 21590 27940">
  <style>.fil0{fill:white}</style>
  <g>
    <path class="fil0" d="M14280.66 6037.11h-7188.83c4.12-538.37 839.36-1361.59 1260.16-1680.72 1327.2-1006.53 3225.61-975.7 4613.32-38.17 416.58 281.46 1305.31 1202.29 1315.35 1718.89zm-4014.54-3874.48c-4087.94 358.82-4715.86 3662.91-5937.44 6853.04-1370.24 3578.28-2922.49 6250.44-1071.08 10098.46 2020.78 4200.06 4631.02 3202.11 5100.7 1484.6 270.96-990.83-191.02-1546.42-800.91-2236.72-2566.25-2904.64-265.81-7477.5 3564.17-7072.02 2734.43 289.48 4399.46 3045.2 3557.26 5602.99-329.33 1000.16-693.81 1177.97-1272.42 1945.06-1229.44 1629.91 287.71 3700.9 2091.33 3173.96 1235.11-360.86 2456.63-2407.82 2901.38-3547.28 1460.99-3743.12-254.24-6538.21-1601.8-10089.47-478.29-1260.46-1165.95-3397.22-2020.41-4374.83-1161.01-1328.34-2749.88-1992.36-4510.78-1837.79z"/>
    <g>
      <path class="fil0" d="M9926.85 13745.9h1560.96c250.41 0 455.28 204.87 455.28 455.28s-204.87 455.29-455.28 455.29H9926.85c-250.41 0-455.28-204.87-455.28-455.29s204.87-455.28 455.28-455.28zM9186.55 14642.7h3024.67c250.4 0 455.29 204.87 455.29 455.28s-204.89 455.29-455.29 455.29H9186.55c-250.43 0-455.29-204.87-455.29-455.29s204.86-455.28 455.29-455.28zM8446.24 15539.5h4488.4c250.42 0 455.28 204.87 455.28 455.29s-204.86 455.28-455.28 455.28H8446.24c-250.43 0-455.28-204.87-455.28-455.28s204.85-455.29 455.28-455.29z"/>
      <path class="fil0" d="M12936.02 24206.16h-4488.4c-250.42 0-455.28-204.87-455.28-455.29s204.86-455.28 455.28-455.28h4488.4c250.43 0 455.28 204.87 455.28 455.28s-204.85 455.29-455.28 455.29zM12195.71 25102.96h-3024.67c-250.4 0-455.29-204.87-455.29-455.28s204.89-455.29 455.29-455.29h3024.67c250.43 0 455.29 204.87 455.29 455.29s-204.86 455.28-455.29 455.28zM11455.41 26009.76h-1560.96c-250.41 0-455.28-204.87-455.28-455.28s204.87-455.29 455.28-455.29h1560.96c250.41 0 455.28 204.87 455.28 455.29s-204.87 455.28-455.28 455.28z"/>
      <rect class="fil0" x="9955.26" y="16195.23" width="1467.6" height="7270.13"/>
    </g>
  </g>
</svg>